<svg width="40" height="38" viewBox="0 0 40 38" fill="none" xmlns="http://www.w3.org/2000/svg">
<path fill-rule="evenodd" clip-rule="evenodd" d="M21.1882 28.7232C17.7952 28.7232 14.3482 26.6902 12.3364 23.9994C2.68465 23.9994 2.39288 37.9169 2.39288 37.9169H39.9811C39.9811 37.9169 40.7388 23.9376 29.8846 23.9376C27.8752 26.6617 24.5811 28.7232 21.1882 28.7232Z" fill="white"/>
<path fill-rule="evenodd" clip-rule="evenodd" d="M29.2728 12.0388C29.2728 16.0431 25.6516 23.7001 21.1811 23.7001C16.7175 23.7001 13.094 16.0407 13.094 12.0388C13.094 8.03696 16.7152 4.78796 21.1811 4.78796C25.6516 4.79034 29.2728 8.03934 29.2728 12.0388Z" fill="white"/>
<path fill-rule="evenodd" clip-rule="evenodd" d="M32.8822 8.58325C32.8822 7.83275 31.8469 7.22712 30.5622 7.22237V5.67625C30.5622 5.44587 30.6493 0.0522461 21.2093 0.0522461C11.774 0.0522461 11.861 5.44587 11.861 5.67625V7.277C11.8375 7.277 11.8187 7.26987 11.7975 7.26987C10.5199 7.26987 9.49164 7.866 9.49164 8.60462V15.1454C9.49164 15.8792 10.5222 16.4777 11.7975 16.4777C13.0728 16.4777 14.1081 15.8792 14.1081 15.1454V8.60462C14.1081 8.5025 14.0446 8.40987 14.0069 8.31487V6.53125C14.0069 6.36737 13.3293 2.29662 21.2093 2.29662C29.0916 2.29662 28.2728 6.36737 28.2728 6.53125V8.40987C28.2587 8.46925 28.214 8.5215 28.214 8.58325V15.2736C28.214 16.0265 29.2563 16.6369 30.5481 16.6369C30.5763 16.6369 30.5975 16.6274 30.6258 16.6274V19.0712H28.3105V21.375H32.9058L32.8822 8.58325Z" fill="white"/>
</svg>
