<svg width="40" height="40" viewBox="0 0 40 40" fill="none" xmlns="http://www.w3.org/2000/svg">
<path d="M21.6667 25V20H26.6667V16.6667H21.6667V11.6667H18.3334V16.6667H13.3334V20H18.3334V25H21.6667ZM30 25L35 30L30 35L32.5 37.5L40 30L32.5 22.5L30 25ZM13.3334 31.6667V35H26.6667V31.6667H30V28.3333H5.00002V8.33333H35V21.6667H38.3334V8.33333C38.3334 7.44928 37.9822 6.60143 37.357 5.97631C36.7319 5.35119 35.8841 5 35 5H5.00002C3.15002 5 1.66669 6.48333 1.66669 8.33333V28.3333C1.66669 29.2174 2.01788 30.0652 2.643 30.6904C3.26812 31.3155 4.11597 31.6667 5.00002 31.6667H13.3334Z" fill="white"/>
</svg>
